<svg version="1.1" id="Layer_1" xmlns="http://www.w3.org/2000/svg" x="0" y="0" viewBox="0 0 258.1 73.6" xml:space="preserve"><style></style><path d="M156.9 37.2c13.6 0 27.1-1.9 40.6-3.5 12.7-1.5 26.2-3.3 38.8-.6 8 1.7 16.9 6 19.3 14.5 2.6 9.3-4.5 18.4-10.7 24.4-.9.9.5 2.3 1.4 1.4 6.4-6.2 13.1-15 11.6-24.5-1.3-8.3-8.4-13.5-15.9-16.2-12.2-4.4-26.3-2.8-38.9-1.5-15.4 1.6-30.7 4.1-46.2 4.2-1.3-.1-1.3 1.8 0 1.8z" fill="#000100"/><path d="M37 8c-.3 8.4-6.8 12.1-6.8 12.1s-1 .6-1.3-.2c-.3-.6.3-.9.3-.9s5.9-3.7 6.1-9.9C35.4 7 35 2.2 30 2c-8.5-.3-8.4 11.2-8.1 18.6.2 3.3-.8 7.7-1.9 10.5 3.8 1.5 7.2 3.1 9.1 3.7 3.7 1.3 7.7 2.2 9.7 2.5.4.1 1-.3.5.6 0 0-.5.9-1.7.7-7.2-1.2-14.7-4.2-18.6-5.7-1.8 2.7-5.9 5.9-12 5.7-6.2-.3-7.1-4.1-7-5.4.1-1.9 1.8-5.3 7.9-5.1 3.1.1 6.7 1.1 10.2 2.4 1.9-4.2 2-11.6 2-19.1C20 3.5 25.4-.2 30.2 0s6.9 4.5 6.8 8zM7.7 29.8c-5.3-.2-5.9 2.5-5.9 3.1-.1.7-.3 3.7 5.3 3.9 4.8.2 8.2-2.4 10-4.8-2.9-1.1-4.6-2-9.4-2.2z"/><path d="M47 27.3c.5-.9 1.2.4.1 2.6-.4.8-3.2 6.6-7.4 6.5-5-.1-5.6-4-5.5-6.9.1-2.9 2.7-8.8 5.7-6.9 2.2 1.5 1 4.1.2 6.1-.9 2.2-2.4 4.1-3.2 5 .5.4 1.4.8 2.3.8 4-.1 6.4-4.9 7.8-7.2zm-8.2-3.2c-1.1-.2-3.3 5.1-2.6 8.2 1.8-2 2-3 2.5-4.3.6-1.7 1.1-3.7.1-3.9z"/><path d="M50.8 35.5c-4-.2-4.4-5.3-4.3-8 .1-1.7.9-6.7 1.5-10.3h-8.5s-1.6-.1-1.6-.8c.1-1.1 1.6-.7 2-.7l8.4-.1c.2-1.3.4-2.2.4-2.2.2-.9.3-1.4 1.2-1.1.5.2.8 1.3.8 1.8 0 0-.1.5-.2 1.6l8.6-.1s1.3-.2 1.3.7c-.1.9-1.8.9-1.8.9h-8.4c-.1.9-.3 2-.4 3.3-.2 1-1.2 5.9-1.3 7.4-.1 1.5.2 5.8 2.5 6 3.4.3 5.5-4 6.7-6.3.5-.9 1.3.3.2 2.5-.4.7-2.7 5.6-7.1 5.4z"/><path d="M61.1 4.7c.5.3.4.8.4 1.1-.1.4-1.5 9.1-1.5 9.3s-.5.8-.9.7c-.7-.3-.9-.8-.9-1.3.1-.5 1.4-8.8 1.6-9.6.2-.7.7-.5 1.3-.2zM64.2 30.5c.2.8.6 1.5 1 2.1.1-.1.2-.1.3-.1 2-.2 2.5-1.5 2.5-3.2 0-3.1-1.1-3.9-1.7-5-.1 1.8-1.1 3.8-1.9 5-.2.4-1.4-.2-1-.9.3-.7 1.4-2.3 2-5.7.2-1.2.4-2.2 1.5-2.2 1.9.1 1.6 2.2 1.6 3.1.1 1.2 1.6 4.9 1.5 6.1-.3 2.7-2.4 4.3-3.9 4 .8.8 1.9 1.1 3 1.1 4 0 6.6-5.1 7.9-7.4.5-.9 1.3.4.2 2.6-.4.8-3.4 6.8-8.8 6.5-3.7-.2-5.4-2.6-6.1-5.8 0 0 0-.8.8-1 .8-.2 1 .5 1.1.8zM89.1 35.5c-4-.2-4.4-5.3-4.3-8 .1-1.7.9-6.7 1.5-10.3h-8.5s-1.6-.1-1.6-.8c.1-1.1 1.6-.7 2-.7l8.4-.1c.2-1.3.4-2.2.4-2.2.2-.9.3-1.4 1.2-1.1.5.2.8 1.3.8 1.8 0 0-.1.5-.2 1.6l8.6-.1s1.3-.2 1.3.7c-.1.9-1.8.9-1.8.9h-8.4c-.1.9-.3 2-.4 3.3-.2 1-1.2 5.9-1.3 7.4-.1 1.5.2 5.8 2.5 6 3.4.3 5.5-4 6.7-6.3.5-.9 1.3.3.2 2.5-.4.7-2.7 5.6-7.1 5.4z"/><path d="M105.8 36.2c-3.3.1-3.8-3.3-3.8-3.3s-2 3.6-3.9 3.6c-1 0-3.7-.9-3-6.1S99.3 23 101 23c3.2.1 2.9 2.8 2.8 3.1-.4 1.4-1 1-1.4.9 0 0 .3-2.3-1.5-2.4-1.6-.1-3.2 2.4-3.7 4.8-.6 2.5-.2 5.1 1.1 5.1 2 0 3.7-5.5 3.9-6.8.1-.5 2.1-.1 2 .8-.1 0-2 5.9 1.6 5.9 1.6 0 3.8-1.7 6.7-7 .5-.9 1.3.4.1 2.5-.8 1.7-3.6 6.3-6.8 6.3z"/><path d="M123.1 27.4c.5-.9 1.3.4.1 2.5-.4.8-3.3 6.8-8.6 6.5-6.5-.3-6.6-7.5-6.6-13.5.1-5.3 3.2-16.1 7.4-15.9 2.7.2 3.7 3.4 2.8 8.8-1 7.3-5.3 14.4-7.1 16.5 1 1.5 2.4 2.5 3.9 2.5 4.2 0 6.8-5.1 8.1-7.4zm-7.7-18.3c-2.1-.2-5 6.6-5.7 14-.2 2.2.2 6 .9 8 2.8-4.1 3.7-6.2 5.7-14 .3-1.5 1.2-7.9-.9-8z"/><path d="M132.7 36.4c-4.5.1-5.6-3.1-5.9-3.8-.6-1.8.7-1.9 1-2 2.5-.5 4.4-2.8 4.6-4.4.1-.5.1-1.8-1.2-1.7-1.8.1-5.7 5.7-6.9 10.5-.5 2.1-1 2-1.3 2-1.1 0-1.1-3.1-1-5.7.2-2.7 3-20.2 3.3-21.8s0-1.9 1.4-1.5c1.2.3.7 2.5.7 2.5s-2.7 11.1-3.2 20.8c.8-.8 3.8-8.5 7.2-8.3 2.3.2 2.9 1.9 2.6 3.4-.8 4.1-5.6 5.9-5.6 5.9s1 2.4 4.5 2.4c6.4 0 8.5-5 9.8-7.3.4-.9 1.2.3.1 2.5-.3.6-2.7 6.4-10.1 6.5zM145.4 35.5c0 .9-.9 1.5-1.9 1.4-.8 0-1.3-.7-1.3-1.4 0-.9.8-1.6 1.7-1.5.9 0 1.5.6 1.5 1.5zM149.8 35.5c0 .9-.9 1.5-1.9 1.4-.8 0-1.3-.7-1.3-1.4 0-.9.8-1.6 1.7-1.5.9 0 1.5.6 1.5 1.5zM154.2 35.5c0 .9-.9 1.5-1.9 1.4-.8 0-1.3-.7-1.3-1.4 0-.9.8-1.6 1.7-1.5.9 0 1.5.6 1.5 1.5z"/></svg>